<?xml version="1.0" encoding="utf-8"?>
<!-- Generator: Adobe Illustrator 16.0.0, SVG Export Plug-In . SVG Version: 6.00 Build 0)  -->
<!DOCTYPE svg PUBLIC "-//W3C//DTD SVG 1.1//EN" "http://www.w3.org/Graphics/SVG/1.1/DTD/svg11.dtd">
<svg version="1.1" id="圖層_1" xmlns="http://www.w3.org/2000/svg" xmlns:xlink="http://www.w3.org/1999/xlink" x="0px" y="0px"
	 width="340.156px" height="113.789px" viewBox="0 113.79 340.156 113.789" enable-background="new 0 113.79 340.156 113.789"
	 xml:space="preserve">
<g>
	<path d="M126.832,206.774c0.021,0.854,0,6.465,0,6.465c0,0.084-0.266,0.26-0.794,0.521c-0.529,0.27-1.33,0.516-2.403,0.742
		c-1.069,0.226-2.368,0.336-3.9,0.336c-2.015-0.041-3.603-0.414-4.767-1.113c-1.166-0.701-1.99-1.746-2.477-3.152
		c-0.479-1.396-0.72-3.236-0.72-5.525c0.049-1.842,0.329-3.389,0.836-4.646c0.509-1.254,1.316-2.22,2.417-2.89
		c1.106-0.674,2.561-1.021,4.355-1.047c1.708,0,3.202,0.104,4.471,0.304c1.27,0.212,2.486,0.698,2.52,0.808
		c0,0,0.444,2.264,0.475,2.646c0.021,0.263-0.535-0.198-0.956-0.434c-0.458-0.256-1.055-0.483-1.798-0.685
		c-0.748-0.194-1.651-0.302-2.715-0.302c-0.5,0-0.89,0.016-1.176,0.039c-2.604,0.166-3.908,2.232-3.908,6.203
		c0,1.371,0.063,2.57,0.184,3.597c0.121,1.022,0.403,1.909,0.86,2.649c0.448,0.744,1.118,1.162,2.007,1.248
		c1.086,0,1.904-0.099,2.451-0.293c0.543-0.199,1.015-0.486,1.015-0.486v-5.075c0,0,3.204-0.045,3.903-0.021
		C126.753,206.667,126.831,206.736,126.832,206.774z"/>
	<path d="M164.435,206.774c0.023,0.854,0,6.465,0,6.465c0,0.084-0.266,0.26-0.794,0.521c-0.529,0.27-1.33,0.516-2.403,0.742
		c-1.069,0.226-2.368,0.336-3.897,0.336c-2.015-0.041-3.604-0.414-4.771-1.113c-1.165-0.701-1.988-1.746-2.475-3.152
		c-0.482-1.396-0.719-3.236-0.719-5.525c0.048-1.842,0.328-3.389,0.835-4.646c0.511-1.254,1.314-2.22,2.417-2.89
		c1.106-0.674,2.559-1.021,4.355-1.047c1.71,0,3.199,0.104,4.472,0.304c1.267,0.212,2.482,0.698,2.519,0.808
		c0,0,0.443,2.264,0.473,2.646c0.021,0.263-0.533-0.198-0.955-0.434c-0.458-0.256-1.055-0.483-1.798-0.685
		c-0.749-0.194-1.649-0.302-2.715-0.302c-0.499,0-0.888,0.016-1.174,0.039c-2.603,0.166-3.909,2.232-3.909,6.203
		c0,1.371,0.063,2.57,0.185,3.597c0.123,1.022,0.403,1.909,0.86,2.649c0.445,0.744,1.115,1.162,2.005,1.248
		c1.089,0,1.901-0.099,2.452-0.293c0.541-0.199,1.014-0.486,1.014-0.486v-5.075c0,0,3.206-0.045,3.902-0.021
		C164.355,206.667,164.435,206.736,164.435,206.774z"/>
	<path d="M140.327,214.688v-1.363c-0.104,0.237-0.443,0.528-1.025,0.877c-0.576,0.348-1.562,0.522-2.957,0.522
		c-1.189-0.042-2.176-0.351-2.963-0.912c-0.79-0.565-1.188-1.458-1.208-2.677c0-1.311,0.467-2.288,1.403-2.943
		c0.938-0.654,2.341-1.053,4.215-1.188c0.862-0.075,1.527-0.295,1.995-0.664c0.466-0.377,0.697-0.791,0.697-1.252
		c0-0.476-0.207-0.877-0.64-1.213c-0.429-0.338-1.011-0.506-1.737-0.506c-1.506,0-2.677,0.277-3.512,0.836
		c-0.836,0.551-1.547,1.459-1.639,1.396c-0.274-0.19,0.537-2.582,0.537-2.582c0-0.046,0.198-0.181,0.596-0.41
		c0.393-0.229,0.953-0.442,1.662-0.642c0.713-0.201,1.559-0.305,2.543-0.313c2.006,0,3.457,0.347,4.354,1.028
		c0.894,0.68,1.342,1.574,1.342,2.68v9.326H140.327z M138.535,212.663c1.191-0.328,1.792-0.852,1.792-1.564v-2.965
		c-0.007,0.021-0.05,0.107-0.133,0.271s-0.271,0.323-0.562,0.48c-0.294,0.158-0.739,0.275-1.338,0.343
		c-1.015,0.144-1.792,0.366-2.324,0.683c-0.534,0.315-0.795,0.853-0.795,1.619c0.081,0.879,0.783,1.321,2.109,1.321
		C137.688,212.851,138.103,212.786,138.535,212.663z"/>
	<path d="M199.816,214.688h-4.137V196.5h12.375v2.267h-8.238v5.308h6.869v2.264h-6.869V214.688z"/>
	<path d="M229.634,214.688v-12.996h3.671v1.604c0.016-0.014,0.088-0.104,0.223-0.27c0.138-0.171,0.347-0.347,0.619-0.533
		c0.271-0.184,0.64-0.354,1.108-0.523c0.5-0.209,1.142-0.312,1.918-0.312c0.593,0,0.972,0.028,1.12,0.079
		c0,0,0.619,1.981,0.316,1.876c-0.262-0.097-0.858-0.162-1.25-0.162c-0.844,0-1.547,0.157-2.104,0.477
		c-0.625,0.312-1.108,0.738-1.446,1.275c-0.332,0.539-0.504,1.037-0.504,1.486v8.002L229.634,214.688L229.634,214.688z"/>
	<path d="M243.52,214.688v-12.996h3.666v1.059c0.758-0.756,1.92-1.131,3.479-1.131c1.103,0,1.881,0.196,2.332,0.596
		c0.444,0.4,0.709,0.736,0.785,1.002c0-0.012,0.13-0.153,0.385-0.43c0.251-0.271,0.621-0.521,1.108-0.75
		c0.485-0.222,1.111-0.352,1.869-0.384c1.387,0,2.431,0.32,3.129,0.954c0.692,0.635,1.043,1.463,1.043,2.479v9.603h-2.813V205.4
		c0-1.167-0.701-1.751-2.104-1.751c-0.736,0.051-1.262,0.316-1.575,0.801c-0.315,0.479-0.5,0.879-0.569,1.189v9.05h-2.806V205.4
		c0-0.503-0.177-0.918-0.517-1.255c-0.345-0.331-0.877-0.496-1.604-0.496c-0.775,0.077-1.309,0.364-1.616,0.868
		s-0.479,0.92-0.528,1.233v8.938L243.52,214.688L243.52,214.688z"/>
	<path d="M268.807,196.465c0.648,0,1.151,0.201,1.524,0.604c0.362,0.406,0.543,0.896,0.543,1.457c0,0.582-0.185,1.076-0.56,1.488
		c-0.369,0.411-0.883,0.618-1.545,0.618c-0.638,0-1.142-0.207-1.517-0.619c-0.377-0.417-0.565-0.898-0.565-1.445
		c0-0.562,0.188-1.049,0.565-1.472C267.63,196.676,268.148,196.465,268.807,196.465z M266.97,214.688v-12.996h3.628v12.996H266.97z"
		/>
	<path d="M287.343,204.693v9.995h-2.731v-9.52c0-1.092-0.834-1.64-2.5-1.64c-0.81,0.097-1.396,0.354-1.752,0.761
		c-0.349,0.41-0.558,0.738-0.627,0.996v9.4h-3.674V201.69h3.674v1.061c0.054-0.031,0.228-0.146,0.518-0.348
		c0.296-0.191,0.72-0.375,1.259-0.537c0.543-0.166,1.173-0.248,1.89-0.248c1.357,0,2.349,0.307,2.99,0.928
		C287.021,203.165,287.343,203.885,287.343,204.693z"/>
	<path d="M297.878,217.577c2.001,0,3.004-0.6,3.004-1.793v-1.679c-0.925,0.465-2.06,0.692-3.397,0.692
		c-0.976-0.037-1.812-0.195-2.5-0.48c-0.688-0.277-1.281-0.906-1.762-1.884c-0.486-0.972-0.729-2.408-0.729-4.3
		c0.049-1.959,0.358-3.414,0.933-4.365c0.575-0.956,1.219-1.553,1.938-1.794c0.722-0.239,1.543-0.354,2.478-0.354
		c0.512,0.023,0.979,0.109,1.413,0.254c0.429,0.146,0.812,0.311,1.146,0.49c0.326,0.166,0.484,0.258,0.484,0.266v-0.938h3.635
		v13.503c0,2.634-1.943,3.986-5.824,4.058c-1.389,0-2.537-0.117-3.439-0.354c-0.904-0.238-1.55-0.548-1.55-0.548
		s-0.558-2.2-0.276-2.022c0.389,0.248,0.832,0.437,1.625,0.735C295.854,217.357,296.795,217.53,297.878,217.577z M300.882,204.469
		c0-0.072-0.219-0.244-0.657-0.512c-0.436-0.271-0.927-0.453-1.484-0.551c-0.825,0-1.479,0.17-1.963,0.51
		c-0.485,0.342-0.836,0.854-1.045,1.543c-0.2,0.692-0.319,1.604-0.354,2.75c0,1.541,0.229,2.746,0.677,3.615
		c0.455,0.866,1.305,1.299,2.563,1.299c0.661-0.045,1.184-0.151,1.554-0.326c0.367-0.174,0.605-0.314,0.712-0.414L300.882,204.469
		L300.882,204.469z"/>
	<path d="M177.938,214.688v-1.363c-0.104,0.237-0.438,0.528-1.022,0.877c-0.576,0.348-1.563,0.522-2.956,0.522
		c-1.189-0.042-2.178-0.351-2.964-0.912c-0.79-0.565-1.188-1.458-1.207-2.677c0-1.311,0.466-2.288,1.401-2.943
		c0.938-0.654,2.342-1.053,4.213-1.188c0.865-0.075,1.529-0.295,1.994-0.664c0.472-0.377,0.701-0.791,0.701-1.252
		c0-0.476-0.207-0.877-0.64-1.213c-0.431-0.338-1.013-0.506-1.738-0.506c-1.506,0-2.676,0.277-3.512,0.836
		c-0.834,0.551-1.548,1.459-1.642,1.396c-0.271-0.19,0.54-2.582,0.54-2.582c0-0.046,0.196-0.181,0.597-0.41
		c0.396-0.229,0.952-0.442,1.661-0.642c0.714-0.201,1.56-0.305,2.543-0.313c2.007,0,3.457,0.347,4.354,1.028
		c0.894,0.68,1.341,1.574,1.341,2.68v9.326H177.938z M176.146,212.663c1.193-0.328,1.789-0.852,1.789-1.564v-2.965
		c-0.004,0.021-0.047,0.107-0.131,0.271c-0.082,0.163-0.27,0.323-0.562,0.48c-0.293,0.158-0.74,0.275-1.338,0.343
		c-1.014,0.144-1.788,0.366-2.323,0.683c-0.535,0.315-0.796,0.853-0.796,1.619c0.083,0.879,0.783,1.321,2.109,1.321
		C175.3,212.851,175.713,212.786,176.146,212.663z"/>
	<path d="M220.543,214.688v-1.363c-0.104,0.237-0.439,0.528-1.025,0.877c-0.578,0.348-1.563,0.522-2.957,0.522
		c-1.188-0.042-2.175-0.351-2.959-0.912c-0.793-0.565-1.189-1.458-1.211-2.677c0-1.311,0.467-2.288,1.403-2.943
		c0.938-0.654,2.34-1.053,4.213-1.188c0.866-0.075,1.53-0.295,1.996-0.664c0.47-0.377,0.699-0.791,0.699-1.252
		c0-0.476-0.209-0.877-0.64-1.213c-0.431-0.338-1.013-0.506-1.739-0.506c-1.505,0-2.677,0.277-3.511,0.836
		c-0.836,0.551-1.549,1.459-1.642,1.396c-0.272-0.19,0.539-2.582,0.539-2.582c0-0.046,0.199-0.181,0.599-0.41
		c0.394-0.229,0.95-0.442,1.659-0.642c0.714-0.201,1.558-0.305,2.543-0.313c2.007,0,3.456,0.347,4.355,1.028
		c0.895,0.68,1.338,1.574,1.338,2.68v9.326H220.543z M218.751,212.663c1.194-0.328,1.792-0.852,1.792-1.564v-2.965
		c-0.006,0.021-0.05,0.107-0.134,0.271c-0.08,0.163-0.271,0.323-0.562,0.48c-0.293,0.158-0.738,0.275-1.336,0.343
		c-1.016,0.144-1.791,0.366-2.324,0.683c-0.537,0.315-0.797,0.853-0.797,1.619c0.082,0.879,0.784,1.321,2.11,1.321
		C217.904,212.851,218.316,212.786,218.751,212.663z"/>
</g>
<g>
	<g>
		<path d="M233.516,154.359c-1.356,1.521-2.475,2.918-3.744,4.166c-1.513,1.498-3.188,2.734-5.377,3.25
			c-1.076,0.258-2.067,0.408-3.117,0.158c-1.325-0.313-2.637-0.682-3.944-1.031c0.004-0.142,0.015-0.284,0.022-0.426
			c0.394-0.096,0.844-0.353,1.176-0.257c4.111,1.242,6.906-1.229,9.626-3.549c1.423-1.219,2.395-2.971,3.536-4.438
			c-2.601-3.195-6.207-4.857-10.771-2.081c-0.209-1.211,0.388-2.104,0.896-2.935c1.965-3.202,3.399-6.632,4.651-10.144
			c0.132-0.37,0.22-0.75,0.354-1.209c-1.524-0.59-3.061-0.437-4.551-0.597c-1.437-0.152-3.063,0.356-4.51-1.079
			c0.52-0.095,0.801-0.201,1.077-0.19c2.521,0.127,5.035,0.266,7.552,0.421c0.91,0.054,1.482-0.306,1.862-1.155
			c1.136-2.554,2.384-5.059,3.453-7.634c0.399-0.973,0.877-1.6,1.933-1.73c1.146-0.145,2.159,0.21,2.834,1.106
			c0.7,0.934,0.174,1.919-0.268,2.812c-0.995,2.021-2.034,4.03-3.05,6.051c-0.111,0.223-0.146,0.491-0.24,0.839
			c1.988,0.228,3.89,0.443,5.746,0.652c0.517-0.544,0.942-1.372,1.479-1.451c0.69-0.109,1.534,0.275,2.207,0.653
			c1.252,0.696,1.488,1.617,0.9,3.04c-1.934,4.665-3.921,9.303-6.998,13.377c-0.191,0.251-0.322,0.56-0.52,0.903
			c0.315,0.462,0.574,0.928,0.912,1.328c1.97,2.326,2.778,5.102,3.176,8.047c0.095,0.689,0.191,1.465-0.586,1.693
			c-0.479,0.138-1.133-0.095-1.625-0.334c-1.584-0.752-2.221-2.159-2.459-3.816C234.938,157.302,234.714,155.799,233.516,154.359z
			 M238.512,136.662c-1.785-0.245-3.289-0.403-4.771-0.672c-1.158-0.208-1.9,0.153-2.407,1.224
			c-1.478,3.095-2.999,6.173-4.496,9.236c2.095,1.026,4.146,2.031,6.285,3.074C235.343,145.543,236.848,141.295,238.512,136.662z"/>
		<path d="M257.161,147.527c1.563,0.179,2.899,0.261,4.198,0.498c1.431,0.255,2.457-0.317,3.36-1.305
			c0.533-0.595,1.023-1.242,1.625-1.756c0.729-0.609,1.513-0.538,1.875,0.186c0.813,1.631,1.55,3.304,2.354,5.043
			c-0.945,0.768-2.092,0.603-3.176,0.442c-2.832-0.422-5.646-0.934-8.469-1.394c-0.639-0.105-1.295-0.148-2.144-0.248
			c-0.687,3.081-1.353,6.11-2.019,9.15c-0.513,2.336-1,4.682-1.537,7.014c-0.351,1.53-1.573,1.967-2.865,1.112
			c-2.373-1.575-4.764-3.128-7.137-4.709c-0.141-0.1-0.205-0.313-0.303-0.479c1.396-1.024,3.277-1.111,7.301-0.301
			c1.127-3.858,1.547-7.854,2.252-11.91c-1.736-0.696-3.465-0.545-5.157-0.64c-1.259-0.064-2.529-0.117-3.769-0.32
			c-0.65-0.107-1.248-0.522-1.806-1.061c3.592-0.403,7.106,0.087,10.927,0.188c0.124-1.099,0.418-2.197,0.324-3.267
			c-0.145-1.692-0.393-3.419-0.909-5.037c-0.321-0.999-0.161-1.348,0.667-1.886c2.672-1.738,5.312-3.537,7.887-5.431
			c0.918-0.669,1.994-1.354,2.34-2.882c-2.532-0.115-4.957-0.234-7.385-0.332c-1.262-0.054-2.533-0.01-3.791-0.109
			c-0.893-0.074-1.854-0.155-2.654-1.387c1.062,0.009,1.871,0.028,2.682,0.028c3.916,0.002,7.837,0.007,11.754-0.014
			c1.098-0.008,2.102,0.155,2.995,0.867c1.241,0.996,1.448,1.509,1.01,3.105c-0.176,0.642-0.336,1.303-0.622,1.895
			c-0.746,1.514-1.719,1.944-3.412,1.693c-0.5-0.075-1.05-0.113-1.533,0.004c-1.188,0.281-5.369,2.645-6.438,3.551
			C257.7,140.69,257.561,143.968,257.161,147.527z"/>
	</g>
	<g>
		<path d="M282.289,181.186c1.827-0.23,3.377-0.426,5.175-0.657c-0.315-4.237,0.097-8.282-0.364-12.654
			c-2.438,0.431-4.556,0.81-6.83,1.213c-0.349,2.219-0.522,4.396-1.055,6.477c-0.514,2.008-0.977,4.247-2.199,5.801
			c-1.716,2.168-3.903,4.139-7.027,4.299c-0.912,0.049-1.819,0.221-2.788,0.346c-0.249-1.062,0.245-1.678,1.106-1.995
			c3.692-1.371,5.088-4.558,5.871-7.947c1.443-6.215,1.09-12.513,0.295-18.796c-0.035-0.248-0.078-0.503-0.166-0.737
			c-0.302-0.826-1.177-1.799-0.104-2.455c0.914-0.562,1.974-1.13,3.263-0.639c0.81,0.306,1.789,0.295,2.679,0.236
			c5.67-0.371,11.287-1.454,17.037-0.916c2.368,0.224,4.811-0.42,7.224-0.645c1.077-0.1,2.177-0.044,3.239-0.229
			c2.728-0.47,5.446-0.989,8.146-1.579c0.838-0.188,1.438-0.188,2.116,0.849c-0.705,0.307-1.246,0.704-1.821,0.766
			c-5.921,0.672-11.833,1.39-17.772,1.879c-3.164,0.26-6.377-0.021-9.554,0.185c-2.901,0.188-5.782,0.696-8.562,1.051
			c0.089,4.16,0.172,8.058,0.259,12.061c0.625-0.008,1.205,0.051,1.776-0.019c4.738-0.602,9.478-1.178,14.205-1.856
			c2.996-0.426,5.957-1.022,8.938-1.531c0.58-0.103,1.177-0.234,1.746-0.188c2.479,0.207,4.434-0.563,5.824-2.699
			c0.752-1.155,1.885-1.318,3.104-0.789c0.846,0.369,1.709,0.729,2.473,1.24c0.349,0.231,0.701,0.85,0.635,1.218
			c-0.062,0.343-0.646,0.788-1.055,0.846c-3.397,0.502-6.812,0.901-10.216,1.389c-2.896,0.413-5.794,0.9-8.696,1.379
			c-1.893,0.311-3.787,0.654-5.717,0.993c0.178,3.566-1.264,6.967-0.396,10.758c1.021-0.506,1.874-0.961,2.754-1.362
			c1.819-0.831,3.66-1.61,5.462-2.474c0.422-0.205,0.729-0.646,1.114-1.004c-0.961-2.09-3.566-2.763-4.353-5.189
			c2.354-0.459,4.073,0.179,5.666,1.408c1.102,0.858,2.258,1.659,3.709,2.714c1.099-1.808,2.09-3.33,2.957-4.917
			c0.717-1.293,1.494-1.679,3.578-1.464c1.178,0.115,2.332,1.012,2.537,2.095c0.083,0.459,0.077,1.126-0.184,1.422
			c-1.596,1.791-3.271,3.505-5.023,5.357c1.273,1.166,3.252,1.635,5.109,2.029c4.486,0.965,9.027,1.641,13.547,2.451
			c0.889,0.158,1.757,0.414,3.126,0.744c-0.62,0.781-0.896,1.473-1.369,1.662c-3.646,1.424-7.185,3.137-11.335,2.887
			c-1.859-0.111-3.492-0.48-4.921-1.521c-3.257-2.365-6.438-4.823-9.629-7.278c-1.28-0.987-1.933-1.237-2.763-0.056
			c-2.711,3.869-7.066,5.242-10.814,7.549c-0.998,0.611-1.984,1.234-2.938,1.914c-1.49,1.07-2.692,1.179-4.148,0.138
			c-0.816-0.577-1.596-1.249-2.262-1.989C282.573,182.583,282.544,181.963,282.289,181.186z"/>
		<path d="M291.773,133.162c2.74,0.384,5.188,0.11,7.842-0.688c-0.141-1.802-0.275-3.534-0.438-5.546
			c0.659-0.269,1.383-0.742,2.15-0.836c1.378-0.171,2.869,0.344,4.049-0.884c0.116-0.124,0.773,0.118,1.049,0.351
			c0.137,0.115,0.059,0.789-0.104,0.869c-2.144,1.178-1.309,3.142-1.498,5.22c2.744-0.888,5.486-0.12,8.025-1.442
			c0.881-0.458,2.14-0.401,3.188-0.273c1.335,0.169,2.215,1.406,2.077,2.72c-0.418,3.994-0.905,7.983-1.33,11.979
			c-0.237,2.215-1.005,3.884-3.559,4.104c-0.556,0.052-1.074,0.413-1.813,0.72c-0.224-0.838-0.418-1.589-0.618-2.334
			c-4.82-0.127-32.396,3.818-35.229,5.144c-1.453-5.897-1.463-11.959-3.021-17.731c1.253-1.646,3.137-1.33,4.219-0.794
			c2.579,1.293,5.098,0.546,7.645,0.498c0.572-0.009,1.142-0.209,1.861-0.354c-0.271-2.112-0.532-4.155-0.785-6.159
			c1.654-0.997,5.104-1.203,7.803-0.231c-0.776,0.674-1.395,1.204-2.016,1.748C291.429,130.486,291.595,131.721,291.773,133.162z
			 M279.886,149.33c2.898-0.534,5.63-1.034,8.534-1.565c-0.389-2.15-0.729-4.001-1.093-5.996c-2.843,0.166-5.466,0.261-7.925,1.586
			C279.568,145.392,279.714,147.273,279.886,149.33z M312.184,138.708c-2.647,0.335-4.922,0.625-7.332,0.927
			c-0.07,2.188-0.138,4.236-0.211,6.544c2.408-0.303,4.59-0.581,6.905-0.879C311.755,143.087,311.951,141.051,312.184,138.708z
			 M299.889,140.539c-2.826-0.269-5.228,0.086-7.565,0.651c0.104,3.684,0.181,4.107,1.082,5.897c2.256-0.258,4.54-0.456,6.894-1.102
			C300.148,144.054,300.025,142.411,299.889,140.539z M279.498,141.325c2.62-0.33,4.998-0.635,7.491-0.954
			c-0.231-1.768-0.421-3.295-0.646-5.073c-2.17,0.074-4.172,0.102-6.157,0.239c-1.067,0.069-1.728,0.701-1.521,1.856
			C278.889,138.704,279.215,139.993,279.498,141.325z M312.341,132.186c-2.675,0.247-5.122-0.405-7.313,1.051
			c-0.184,1.625-0.58,3.167,0.175,4.805c2.309-0.488,4.702,0.29,6.987-1.114C312.234,135.475,312.287,133.998,312.341,132.186z
			 M292.441,139.731c2.615-0.332,4.813-0.608,7.318-0.929c-0.072-1.521-0.146-3.029-0.22-4.616
			c-2.415,0.117-4.478,0.203-6.538,0.327c-0.312,0.016-0.617,0.186-1.171,0.362C292.021,136.412,292.223,137.919,292.441,139.731z"
			/>
		<path d="M283.253,161.158c2.336-0.545,4.644-1.259,7.007-1.593c3.568-0.505,7.176-0.711,10.76-1.102
			c1.742-0.19,3.465-0.543,5.205-0.771c1.648-0.213,2.982-0.943,4.2-2.071c1.623-1.521,4.586-1.349,6.041,0.263
			c0.547,0.606,0.403,1.314-0.379,1.568c-0.558,0.182-1.151,0.225-1.731,0.313c-4.308,0.688-8.605,1.414-12.92,2.043
			c-2.318,0.348-4.68,0.486-7.009,0.796c-3.323,0.434-6.634,0.945-9.948,1.398c-0.373,0.047-0.764-0.053-1.142-0.08
			C283.307,161.668,283.282,161.411,283.253,161.158z"/>
	</g>
	<g>
		<path d="M215.717,172.293c-0.257,0.033-0.514,0.127-0.767,0.274c-0.388,0.226-0.753,0.396-1.104,0.522
			c-0.347,0.123-0.705,0.238-1.052,0.346c-0.548,0.174-1.108,0.35-1.649,0.576c-0.392,0.16-0.68,0.141-1.098-0.1
			c-0.27-0.154-0.536-0.305-0.812-0.453c-0.373-0.209-0.762-0.42-1.135-0.646c-0.463-0.279-0.91-0.575-1.379-0.896
			c-0.132-0.084-0.265-0.172-0.398-0.26c0.017-0.015,0.021-0.031,0.033-0.043c0.183-0.205,0.36-0.412,0.545-0.619
			c0.395-0.438,0.807-0.896,1.158-1.385c0.726-0.993,1.254-2.071,1.832-3.271c0.301-0.643,0.116-1.295-0.505-1.755
			c-0.768-0.571-1.629-0.596-2.368-0.577c-0.129,0.003-0.244,0.017-0.347,0.028c-0.575,0.085-0.896,0.383-1.092,1.036
			c-0.067,0.204-0.103,0.413-0.138,0.619c-0.023,0.132-0.049,0.265-0.078,0.396c-0.192,0.805-0.622,1.493-1.073,2.215
			c-0.078,0.128-0.147,0.247-0.228,0.369c-0.117,0.194-0.264,0.375-0.414,0.566c-0.015,0.017-0.026,0.033-0.043,0.048
			c-1.39-1.214-3.506-4.082-3.912-5.145c0.014-0.005,0.021-0.008,0.033-0.01c0.205-0.075,0.396-0.143,0.586-0.177
			c0.248-0.044,0.496-0.084,0.744-0.124c0.313-0.043,0.582-0.072,0.84-0.085c0.362-0.012,0.732-0.056,1.127-0.106
			c1.121-0.166,2.219-0.47,3.281-0.765c0.316-0.083,0.637-0.173,0.951-0.262c0.471-0.118,0.934-0.249,1.396-0.37
			c1.056-0.289,2.144-0.577,3.216-0.835c0.567-0.133,1.006-0.406,1.354-0.85l0.11-0.136l-0.084-0.156
			c-0.455-0.841-0.81-1.172-1.582-1.475c-0.043-0.02-0.087-0.035-0.135-0.053c-0.156-0.059-0.304-0.109-0.404-0.192
			c-0.412-0.325-0.874-0.4-1.323-0.472l-0.188-0.031c-0.72-0.123-1.234,0.165-1.579,0.89c-0.12,0.256-0.251,0.507-0.383,0.754
			c-0.12,0.232-0.247,0.466-0.363,0.699c-0.107,0.231-0.206,0.317-0.4,0.349c-0.426,0.076-0.844,0.191-1.252,0.306l-0.209,0.058
			c-0.16,0.039-0.318,0.095-0.479,0.147c-0.238,0.076-0.469,0.154-0.7,0.199c-0.964,0.181-1.935,0.359-2.897,0.529
			c-0.797,0.15-1.592,0.291-2.389,0.443c-0.105,0.02-0.199,0.037-0.277,0.049c-0.248,0.036-0.248,0.036-0.432-0.427
			c-0.082-0.193-0.141-0.396-0.199-0.617c-0.11-0.372-0.224-0.763-0.44-1.101c-0.292-0.438-0.429-0.924-0.568-1.437
			c-0.049-0.17-0.092-0.341-0.146-0.512c-0.092-0.295-0.174-0.599-0.264-0.915c-0.017-0.062-0.031-0.127-0.047-0.185l1.232-0.321
			c1.688-0.435,3.39-0.875,5.089-1.31c0.129-0.033,0.271-0.052,0.405-0.065c0.005,0.072,0.018,0.143,0.023,0.207
			c0.045,0.31,0.077,0.603,0.139,0.891c0.127,0.644,0.511,0.986,1.022,0.915c0.187-0.024,0.379-0.107,0.578-0.241
			c0.341-0.229,0.675-0.493,1.028-0.808c0.176-0.154,0.408-0.394,0.472-0.682l0.04-0.202c0.143-0.682,0.286-1.388,0.314-2.097
			c0.028-0.664,0.004-1.34-0.021-1.988c-0.008-0.385-0.023-0.769-0.027-1.149c0-0.1,0.021-0.213,0.045-0.331
			c0.033-0.179,0.076-0.376,0.043-0.58c-0.146-0.848-0.066-1.682,0.004-2.558c0.049-0.562,0.098-1.133,0.094-1.71
			c-0.021-0.748,0-1.471,0.357-2.121c0.038-0.069,0.131-0.26,0.104-0.455c-0.017-0.095-0.021-0.194-0.026-0.299
			c-0.019-0.341-0.039-0.688-0.277-0.897c-0.481-0.43-1.03-0.846-1.789-0.98c-0.758-0.131-1.479-0.082-2.248,0.159
			c-0.237,0.07-0.469,0.17-0.685,0.262c-0.235,0.101-0.45,0.188-0.682,0.26c-1.241,0.375-2.511,0.729-3.738,1.072l-0.063,0.019
			c-0.857,0.237-1.719,0.481-2.576,0.714l-1.309,0.354c-0.027,0.011-0.059,0.019-0.09,0.026c-0.113,0.018-0.255,0.046-0.371,0.15
			c-0.357,0.327-0.82,0.424-1.307,0.524c-0.158,0.033-0.324,0.072-0.49,0.112c0.346-0.219,0.628-0.495,0.904-0.76
			c0.12-0.128,0.252-0.251,0.383-0.367c0.238-0.209,0.533-0.378,0.803-0.461c0.654-0.199,1.203-0.572,1.729-0.93
			c0.253-0.172,0.516-0.35,0.775-0.502c0.082-0.046,0.155-0.102,0.209-0.154c0.107-0.094,0.154-0.128,0.256-0.12
			c0.309,0.019,0.727-0.333,0.789-0.631c0.129-0.596,0.477-1.07,0.838-1.58c0.095-0.129,0.184-0.253,0.27-0.377
			c0.336-0.491,0.367-0.932,0.127-1.431c-0.088-0.169-0.174-0.33-0.271-0.481c0.755-0.155,1.543-0.312,2.352-0.432
			c0.781-0.113,1.484-0.174,2.148-0.187c0.183-0.002,0.369-0.045,0.494-0.12c0.227-0.145,0.473-0.229,0.787-0.275
			c0.131-0.018,0.268-0.03,0.438-0.038c0.369-0.015,0.737-0.24,0.971-0.584c0.185-0.271,0.255-0.565,0.191-0.83
			c-0.152-0.628-0.439-1.377-1.343-1.631l-0.056-0.017c-0.475-0.13-0.93-0.254-1.2-0.657c-0.113-0.163-0.309-0.218-0.463-0.266
			l-0.078-0.024c-0.211-0.066-0.422-0.086-0.625-0.06c-0.404,0.06-0.721,0.29-1.018,0.514l-0.087,0.067l-0.015,0.115
			c-0.088,0.754-0.162,0.924-0.659,1.478c-0.028,0.035-0.063,0.063-0.099,0.093c-0.103,0.106-0.224,0.217-0.281,0.377
			c-0.094,0.242-0.229,0.306-0.61,0.369c-1.19,0.212-2.375,0.454-3.524,0.688c-1.39,0.278-2.832,0.586-4.303,0.898
			c-0.933,0.201-1.908,0.426-2.99,0.674c-0.201,0.048-0.397,0.109-0.593,0.167c-0.33,0.099-0.637,0.188-0.952,0.221
			c-0.101,0.013-0.188,0.023-0.267,0.033c-0.277,0.044-0.562,0.108-0.704,0.335c-0.166,0.248-0.12,0.568,0.021,1.108l0.058,0.218
			l0.226-0.018c0.207-0.021,0.416-0.026,0.625-0.038c0.504-0.021,1.055-0.063,1.471-0.198c1.149-0.375,2.361-0.617,3.531-0.856
			c0.291-0.053,0.582-0.118,0.873-0.174c0.174-0.037,0.363-0.073,0.586-0.104c0.168-0.024,0.338-0.045,0.502-0.069
			c0.105-0.011,0.213-0.031,0.324-0.04c0.321,0.435,0.34,0.798,0.073,1.185c-0.122,0.186-0.248,0.368-0.375,0.554
			c-0.312,0.464-0.642,0.945-0.978,1.407c-0.174,0.236-0.41,0.446-0.639,0.654l-0.05,0.041c-0.276,0.253-0.56,0.495-0.84,0.736
			c-0.543,0.467-1.104,0.954-1.621,1.465c-0.325,0.318-0.64,0.482-1.029,0.547c-0.186,0.024-0.38,0.028-0.579,0.032
			c-0.088,0.003-0.174,0.003-0.261,0.004c-0.172,0.007-0.321,0.019-0.448,0.035c-0.271,0.043-0.652,0.128-0.813,0.456
			c-0.175,0.369,0.032,0.825,0.262,1.226c0.271,0.475,0.44,0.979,0.531,1.587l0.1,0.673c0.173,1.158,0.353,2.36,0.507,3.539
			c0.094,0.753,0.187,1.505,0.276,2.267c0.138,1.157,0.274,2.352,0.442,3.524c0.07,0.457,0.273,0.875,0.467,1.284
			c0.047,0.103,0.091,0.199,0.134,0.291c0.117,0.26,0.495,0.322,0.606,0.338c0.24,0.027,0.48,0.024,0.699-0.008l0.043-0.008
			c0.383-0.063,0.758-0.138,1.155-0.219c0.097-0.019,0.198-0.04,0.304-0.061c0.037,0.058,0.075,0.123,0.119,0.175
			c0.159,0.237,0.311,0.456,0.418,0.695c0.187,0.429,0.357,0.883,0.524,1.319c0.13,0.345,0.261,0.688,0.405,1.027
			c0.16,0.394,0.341,0.776,0.531,1.173c0.047,0.111,0.096,0.214,0.147,0.322c-0.049,0.023-0.082,0.048-0.11,0.059
			c-0.225,0.057-0.447,0.11-0.664,0.166c-0.336,0.08-0.678,0.159-1.013,0.265c-1.135,0.336-2.28,0.699-3.396,1.049l-0.461,0.146
			c-0.422,0.13-0.836,0.271-1.219,0.413c-0.214,0.077-0.378,0.229-0.466,0.417c-0.082,0.182-0.088,0.389-0.017,0.59
			c0.104,0.269,0.498,0.479,0.77,0.473c0.307-0.002,0.612-0.093,0.896-0.177l0.111-0.032c0.18-0.055,0.36-0.116,0.538-0.184
			c0.226-0.08,0.438-0.152,0.652-0.209c0.627-0.164,1.25-0.315,1.877-0.471c0.996-0.247,2.022-0.506,3.03-0.778
			c0.285-0.077,0.451-0.042,0.63,0.183c0.112,0.143,0.226,0.277,0.342,0.417c0.222,0.266,0.437,0.522,0.621,0.795
			c0.835,1.252,1.812,2.431,2.978,3.592c0.44,0.439,0.851,0.904,1.28,1.389c0.155,0.168,0.306,0.334,0.462,0.512
			c-0.056,0.086-0.099,0.17-0.146,0.213c-0.258,0.229-0.504,0.465-0.76,0.691c-0.734,0.678-1.498,1.383-2.297,2.01
			c-0.459,0.361-0.998,0.66-1.521,0.947c-0.229,0.12-0.457,0.248-0.683,0.379c-0.199,0.11-0.648,0.379-0.525,0.932
			c0.096,0.445,0.465,0.699,0.96,0.664c0.472-0.032,0.874-0.098,1.228-0.209c0.439-0.133,0.875-0.271,1.303-0.414
			c0.551-0.182,1.117-0.36,1.68-0.521c0.49-0.134,0.89-0.36,1.255-0.72c0.515-0.508,1.056-1.008,1.565-1.488
			c0.164-0.154,0.326-0.309,0.486-0.458l0.654,0.373c0.593,0.339,1.171,0.673,1.744,1.001c0.466,0.266,0.936,0.521,1.4,0.779
			c1.039,0.568,2.113,1.16,3.121,1.802c0.735,0.472,1.414,0.449,1.984,0.363c0.163-0.021,0.322-0.052,0.486-0.085
			c0.287-0.061,0.574-0.197,0.775-0.383c0.604-0.537,1.113-1.024,1.551-1.487c0.877-0.935,1.377-2.099,1.869-3.216l0.125-0.301
			l-0.207-0.119C216.777,172.35,216.242,172.217,215.717,172.293z M191.65,150.905c0.043-0.021,0.089-0.038,0.125-0.054
			c0.252-0.102,0.486-0.201,0.727-0.267c0.503-0.146,1.016-0.279,1.51-0.416c0.999-0.265,2.034-0.538,3.021-0.9
			c0.957-0.356,2.024-0.611,3.354-0.802c0.117-0.018,0.234-0.033,0.353-0.052l0.05-0.003c0.262-0.04,0.521-0.104,0.771-0.164
			c0.146-0.034,0.291-0.072,0.441-0.098c0.291-0.062,0.583-0.117,0.928-0.187l0.194-0.035l-0.038,1.596
			c-0.045,0.035-0.095,0.071-0.139,0.085c-1.615,0.564-3.254,1.125-4.852,1.668c-0.883,0.296-1.762,0.49-2.693,0.597
			c-0.791,0.087-1.577,0.282-2.33,0.481c-0.324,0.08-0.648,0.163-0.973,0.239c-0.096,0.019-0.188,0.046-0.291,0.072
			c-0.141-0.226-0.132-0.481-0.104-0.853C191.719,151.532,191.743,151.216,191.65,150.905z M203.189,144.637
			c0.006,0.316-0.004,0.64-0.019,0.981c0,0.119-0.005,0.241-0.009,0.368c-0.04,0.027-0.102,0.067-0.119,0.074
			c-0.107,0.003-0.225,0.014-0.338,0.031c-0.408,0.06-0.793,0.189-1.166,0.315c-0.359,0.123-0.703,0.244-1.062,0.29l-0.029,0.011
			c-0.729,0.093-1.457,0.213-2.187,0.327l-0.485,0.078c-0.164,0.029-0.317,0.08-0.476,0.129c-0.291,0.103-0.584,0.211-0.87,0.314
			c-0.609,0.23-1.236,0.456-1.863,0.631c-0.719,0.192-1.44,0.334-2.203,0.489c-0.256,0.048-0.521,0.1-0.78,0.153
			c-0.146-0.604-0.093-1.186-0.044-1.792c0.023-0.237,0.044-0.485,0.054-0.736c0.175-0.039,0.341-0.076,0.505-0.111
			c0.567-0.132,1.102-0.259,1.641-0.398c0.287-0.075,0.562-0.179,0.82-0.269c0.106-0.041,0.215-0.084,0.325-0.122
			c0.112-0.043,0.229-0.086,0.341-0.128c0.233-0.091,0.457-0.175,0.68-0.23c0.076-0.016,0.15-0.031,0.224-0.049
			c0.472-0.103,0.958-0.204,1.397-0.568c0.117-0.093,0.314-0.131,0.529-0.179c0.122-0.026,0.247-0.049,0.369-0.086
			c0.37-0.115,0.729-0.264,1.077-0.398c0.617-0.252,1.205-0.482,1.834-0.575h0.017c0.11-0.019,0.229-0.038,0.338-0.055
			c0.226-0.04,0.442-0.076,0.672-0.092c0.438-0.03,0.677,0.14,0.76,0.537c0.066,0.301,0.07,0.643,0.07,0.975v0.084H203.189z
			 M192.021,156.234c-0.056-0.49-0.106-0.951-0.143-1.416c-0.011-0.114-0.006-0.183,0.219-0.26c1.271-0.432,2.485-0.726,3.704-0.901
			l0.22-0.031c1.578-0.228,2.758-0.556,3.826-1.062c0.562-0.263,1.176-0.472,1.767-0.668c0.286-0.099,0.579-0.196,0.864-0.301
			c0.246-0.084,0.446-0.078,0.649,0.039l0.06,1.878c-0.154,0.052-0.304,0.097-0.451,0.146c-0.438,0.145-0.854,0.276-1.272,0.396
			c-1.659,0.468-3.295,0.925-4.944,1.364c-0.385,0.101-0.783,0.179-1.172,0.252c-0.336,0.063-0.681,0.136-1.021,0.215
			c-0.41,0.104-0.782,0.243-1.105,0.413c-0.242,0.133-0.498,0.184-0.717,0.215c-0.099,0.011-0.189,0.023-0.292,0.033
			c-0.049,0.007-0.103,0.008-0.151,0.018C192.044,156.452,192.027,156.338,192.021,156.234z"/>
		<path d="M181.902,152.207c-0.711-0.008-1.281-0.051-1.803-0.123c-0.52-0.07-0.849,0.07-1.094,0.443
			c-0.232,0.35-0.572,0.558-1.135,0.69c-0.785,0.181-1.576,0.396-2.326,0.634c-0.27,0.083-0.523,0.19-0.77,0.296
			c-0.258,0.107-0.506,0.212-0.762,0.283c-0.672,0.205-1.358,0.38-2.029,0.549c-0.258,0.07-0.516,0.142-0.771,0.205
			c-0.188,0.053-0.38,0.099-0.573,0.145l-0.059,0.015c-0.03-0.055-0.044-0.104-0.055-0.141c-0.184-0.825-0.669-1.241-1.471-1.281
			c-0.389-0.021-0.771-0.106-1.174-0.194c-0.157-0.031-0.309-0.062-0.457-0.096c-0.734-0.143-1.27,0.062-1.773,0.642l-0.12,0.147
			l0.098,0.167c0.059,0.1,0.111,0.207,0.16,0.313c0.135,0.283,0.271,0.576,0.529,0.75c0.271,0.188,0.415,0.399,0.493,0.73
			c0.103,0.399,0.189,0.835,0.283,1.368c0.136,0.757,0.213,1.54,0.291,2.291c0.103,1.007,0.208,2.041,0.442,3.051
			c0.207,0.909,0.329,1.854,0.456,2.771c0.059,0.452,0.119,0.901,0.188,1.345c0.045,0.281,0.088,0.574,0.185,0.852
			c0.187,0.513,0.554,0.765,1.023,0.695c0.132-0.019,0.271-0.064,0.418-0.139c0.063-0.025,0.121-0.063,0.179-0.1
			c0.075-0.046,0.152-0.09,0.206-0.101c1.263-0.204,2.312-0.857,3.259-1.53c0.695-0.505,1.476-0.808,2.336-1.129
			c0.4-0.152,0.816-0.279,1.227-0.408c0.248-0.078,0.495-0.155,0.745-0.236c0.134-0.051,0.269-0.105,0.406-0.156
			c0.231-0.097,0.446-0.183,0.665-0.226c0.043-0.011,0.087-0.018,0.128-0.021c0.146-0.021,0.188-0.006,0.188-0.006
			c0.021,0.016,0.055,0.099,0.1,0.357c0.17,1.031,0.339,1.195,1.373,1.379c0.059,0.009,0.109,0.018,0.165,0.022
			c1.012,0.11,2.269-0.725,2.149-1.921c-0.022-0.195-0.028-0.391-0.035-0.592c-0.01-0.213-0.02-0.442-0.043-0.666
			c-0.121-1.146-0.051-2.313,0.021-3.442c0.028-0.449,0.053-0.903,0.072-1.354c0.02-0.511,0.104-1.002,0.189-1.524
			c0.105-0.682,0.229-1.388,0.188-2.124c-0.004-0.093-0.011-0.192-0.011-0.285c-0.021-0.352-0.029-0.709-0.116-1.071
			C183.261,152.502,182.907,152.217,181.902,152.207z M171.518,162.881c-0.054-0.334-0.107-0.66-0.146-0.979
			c-0.147-1.226-0.289-2.687-0.246-4.19c0-0.103-0.008-0.21-0.013-0.317c-0.01-0.117-0.03-0.327,0.005-0.376
			c0.055-0.063,0.276-0.105,0.428-0.139c0.081-0.014,0.169-0.035,0.248-0.051c0.324-0.088,0.647-0.169,0.976-0.251
			c0.494-0.126,0.989-0.249,1.481-0.382c0.244-0.069,0.487-0.16,0.728-0.249c0.16-0.062,0.319-0.118,0.481-0.17
			c0.267-0.086,0.526-0.175,0.797-0.26c0.849-0.28,1.728-0.569,2.604-0.818c0.094-0.025,0.173-0.047,0.242-0.056
			c0.106-0.016,0.182-0.013,0.213,0.013c0.035,0.031,0.095,0.128,0.123,0.474c0.059,0.766,0.068,1.559,0.082,2.323l0.011,0.574
			c0.021,0.963,0.021,1.925,0.034,2.889l0.007,0.32c0,0.129-0.015,0.257-0.021,0.384c0,0.063-0.006,0.132-0.01,0.196
			c-0.028,0.583-0.408,1.01-1.017,1.134c-0.578,0.117-1.106,0.342-1.614,0.56c-0.453,0.194-0.88,0.37-1.336,0.482
			c-0.378,0.1-0.734,0.248-1.072,0.401c-0.428,0.184-0.826,0.358-1.269,0.421l-0.024,0.004c-0.319,0.046-0.604,0.208-0.883,0.363
			c-0.138,0.072-0.269,0.148-0.394,0.205c-0.067,0.029-0.142,0.049-0.229,0.074C171.788,164.545,171.652,163.704,171.518,162.881z"
			/>
		<path d="M216.081,154.415c-0.256-0.507-0.583-0.99-0.896-1.452c-0.103-0.153-0.197-0.31-0.3-0.46
			c-0.323-0.499-0.728-0.752-1.233-0.776c-0.166-0.01-0.336-0.032-0.514-0.056c-0.326-0.049-0.662-0.098-1-0.052l-0.104,0.016
			c-1.098,0.155-2.11,0.505-2.083,1.959v0.169l0.159,0.07c0.099,0.037,0.195,0.073,0.293,0.107c0.179,0.062,0.344,0.124,0.455,0.209
			c0.742,0.613,1.341,1.352,1.776,2.203c0.341,0.657,0.523,0.816,1.277,0.771l0.039-0.003c0.11-0.009,0.219-0.017,0.289,0.01
			c0.221,0.073,0.452,0.099,0.69,0.061c0.317-0.044,0.606-0.182,0.867-0.322c0.312-0.168,0.656-0.616,0.649-0.989
			C216.454,155.406,216.312,154.872,216.081,154.415z"/>
	</g>
	<g>
		<path d="M156.61,178.161c-0.329-0.029-0.675,0.016-1.02,0.125c-0.539,0.168-1.029,0.276-1.5,0.334
			c-0.455,0.053-0.935,0.094-1.389,0.139c-0.714,0.056-1.455,0.115-2.181,0.246c-0.528,0.09-0.878-0.021-1.319-0.432
			c-0.286-0.264-0.577-0.52-0.873-0.777c-0.406-0.354-0.82-0.728-1.216-1.103c-0.489-0.479-0.957-0.968-1.446-1.483
			c-0.137-0.141-0.277-0.293-0.412-0.436c0.014-0.014,0.034-0.027,0.049-0.042c0.275-0.21,0.563-0.405,0.844-0.612
			c0.607-0.428,1.239-0.871,1.813-1.373c1.154-1.021,2.105-2.192,3.146-3.512c0.561-0.698,0.506-1.558-0.127-2.291
			c-0.791-0.912-1.828-1.183-2.752-1.364c-0.16-0.032-0.297-0.052-0.428-0.063c-0.732-0.06-1.203,0.221-1.631,0.965
			c-0.138,0.239-0.236,0.486-0.34,0.722c-0.068,0.153-0.132,0.316-0.205,0.466c-0.463,0.934-1.181,1.663-1.938,2.428
			c-0.126,0.126-0.251,0.257-0.374,0.382c-0.199,0.209-0.427,0.394-0.665,0.58c-0.022,0.017-0.048,0.038-0.071,0.054
			c-1.365-1.878-3.165-5.987-3.368-7.406c0.014,0,0.026,0,0.042-0.003c0.267-0.032,0.524-0.062,0.769-0.05
			c0.32,0.016,0.635,0.026,0.951,0.053c0.389,0.03,0.736,0.075,1.049,0.127c0.45,0.08,0.918,0.14,1.412,0.18
			c1.422,0.11,2.855,0.045,4.242-0.021c0.414-0.02,0.832-0.04,1.245-0.056c0.604-0.022,1.212-0.047,1.813-0.074
			c1.375-0.056,2.793-0.118,4.182-0.125c0.736-0.012,1.343-0.226,1.899-0.672l0.169-0.138l-0.058-0.212
			c-0.321-1.16-0.667-1.665-1.529-2.253c-0.05-0.032-0.099-0.065-0.151-0.1c-0.174-0.112-0.339-0.221-0.44-0.347
			c-0.416-0.52-0.967-0.735-1.491-0.943l-0.232-0.094c-0.847-0.352-1.554-0.142-2.181,0.656c-0.219,0.273-0.451,0.545-0.685,0.815
			c-0.209,0.247-0.426,0.503-0.635,0.758c-0.198,0.25-0.342,0.327-0.583,0.319c-0.55-0.028-1.1,0-1.633,0.022l-0.266,0.013
			c-0.217,0.011-0.419,0.027-0.632,0.049c-0.32,0.032-0.623,0.062-0.919,0.048c-1.231-0.04-2.466-0.094-3.702-0.147
			c-1.018-0.043-2.041-0.087-3.055-0.127c-0.144-0.002-0.261-0.011-0.355-0.016c-0.31-0.027-0.31-0.027-0.412-0.639
			c-0.039-0.263-0.059-0.531-0.074-0.812c-0.026-0.498-0.063-1.004-0.235-1.479c-0.234-0.626-0.265-1.25-0.293-1.919
			c-0.015-0.224-0.023-0.442-0.043-0.666c-0.028-0.396-0.048-0.789-0.066-1.199c0-0.082-0.007-0.16-0.011-0.243l1.605-0.049
			c2.195-0.064,4.4-0.131,6.613-0.193c0.169-0.008,0.345,0.011,0.51,0.03c-0.006,0.089-0.015,0.177-0.022,0.264
			c-0.034,0.392-0.068,0.763-0.072,1.126c-0.026,0.832,0.348,1.361,0.998,1.409c0.234,0.019,0.496-0.026,0.772-0.134
			c0.484-0.188,0.972-0.42,1.489-0.708c0.253-0.142,0.617-0.37,0.765-0.706l0.104-0.231c0.365-0.8,0.744-1.626,0.979-2.49
			c0.212-0.811,0.374-1.641,0.523-2.447c0.092-0.475,0.179-0.948,0.282-1.417c0.028-0.125,0.087-0.251,0.149-0.396
			c0.092-0.205,0.196-0.442,0.215-0.701c0.057-1.079,0.377-2.079,0.713-3.139c0.219-0.671,0.436-1.368,0.582-2.075
			c0.195-0.922,0.414-1.805,1.035-2.499c0.071-0.082,0.231-0.286,0.252-0.531c0.01-0.115,0.028-0.247,0.055-0.372
			c0.072-0.426,0.143-0.861-0.084-1.18c-0.479-0.665-1.043-1.33-1.932-1.701c-0.894-0.377-1.797-0.519-2.809-0.433
			c-0.305,0.024-0.616,0.078-0.911,0.132c-0.312,0.057-0.606,0.108-0.907,0.127c-1.627,0.117-3.284,0.203-4.892,0.284l-0.084,0.003
			c-1.115,0.059-2.235,0.109-3.354,0.163l-1.707,0.074c-0.032,0.005-0.078,0-0.117,0c-0.141-0.007-0.324-0.013-0.493,0.08
			c-0.536,0.302-1.128,0.292-1.753,0.287c-0.205-0.006-0.418-0.006-0.634,0.002c0.485-0.173,0.909-0.438,1.323-0.69
			c0.188-0.115,0.379-0.235,0.571-0.342c0.354-0.195,0.758-0.319,1.107-0.346c0.865-0.061,1.635-0.363,2.383-0.656
			c0.359-0.143,0.729-0.286,1.094-0.396c0.121-0.038,0.213-0.091,0.299-0.138c0.163-0.079,0.229-0.11,0.353-0.072
			c0.364,0.105,0.979-0.204,1.146-0.558c0.319-0.691,0.874-1.188,1.467-1.708c0.146-0.132,0.293-0.259,0.432-0.387
			c0.545-0.509,0.714-1.04,0.549-1.721c-0.051-0.231-0.126-0.456-0.193-0.673c0.968,0.022,1.981,0.051,2.994,0.127
			c0.996,0.082,1.879,0.202,2.706,0.369c0.214,0.047,0.456,0.047,0.631-0.015c0.315-0.114,0.646-0.147,1.044-0.114
			c0.166,0.011,0.341,0.042,0.549,0.074c0.456,0.078,0.978-0.093,1.354-0.447c0.301-0.28,0.469-0.621,0.461-0.971
			c-0.008-0.809-0.149-1.81-1.188-2.374l-0.063-0.029c-0.549-0.294-1.074-0.572-1.303-1.147c-0.088-0.227-0.312-0.352-0.484-0.448
			l-0.09-0.052c-0.237-0.137-0.494-0.225-0.756-0.242c-0.507-0.042-0.963,0.146-1.383,0.342l-0.131,0.057l-0.045,0.137
			c-0.321,0.905-0.457,1.088-1.226,1.631c-0.043,0.035-0.096,0.062-0.144,0.097c-0.155,0.096-0.333,0.201-0.453,0.379
			c-0.175,0.268-0.37,0.309-0.851,0.28c-1.515-0.071-3.044-0.104-4.521-0.132c-1.781-0.036-3.643-0.066-5.53-0.087
			c-1.205-0.016-2.462-0.016-3.857-0.002c-0.266,0.002-0.521,0.018-0.772,0.033c-0.432,0.032-0.842,0.06-1.241,0.01
			c-0.12-0.01-0.23-0.025-0.329-0.031c-0.354-0.031-0.713-0.023-0.961,0.219c-0.267,0.258-0.306,0.656-0.28,1.361l0.01,0.288
			l0.281,0.034c0.259,0.032,0.521,0.084,0.776,0.129c0.627,0.115,1.316,0.213,1.865,0.164c1.519-0.141,3.069-0.103,4.563-0.07
			c0.378,0.009,0.757,0.021,1.13,0.025c0.225,0.002,0.463,0.014,0.75,0.037c0.207,0.016,0.422,0.034,0.631,0.056
			c0.14,0.017,0.274,0.03,0.408,0.044c0.274,0.618,0.197,1.072-0.232,1.477c-0.211,0.188-0.415,0.378-0.619,0.572
			c-0.514,0.481-1.043,0.986-1.58,1.459c-0.281,0.238-0.633,0.431-0.979,0.625l-0.072,0.039c-0.408,0.228-0.82,0.445-1.232,0.666
			c-0.797,0.422-1.612,0.857-2.397,1.346c-0.486,0.301-0.914,0.421-1.414,0.386c-0.233-0.018-0.471-0.066-0.719-0.12
			c-0.107-0.023-0.214-0.046-0.326-0.067c-0.213-0.039-0.394-0.06-0.557-0.074c-0.347-0.032-0.837-0.025-1.123,0.327
			c-0.32,0.398-0.189,1.023-0.021,1.574c0.206,0.661,0.269,1.326,0.21,2.098l-0.063,0.854c-0.111,1.473-0.224,2.994-0.369,4.485
			c-0.085,0.956-0.188,1.903-0.287,2.856c-0.15,1.456-0.309,2.97-0.42,4.455c-0.051,0.581,0.075,1.155,0.204,1.707
			c0.027,0.136,0.063,0.265,0.087,0.397c0.072,0.343,0.514,0.524,0.649,0.576c0.291,0.101,0.58,0.164,0.863,0.185l0.049,0.003
			c0.49,0.03,0.974,0.04,1.481,0.057c0.126,0.002,0.257,0.007,0.386,0.009c0.035,0.085,0.064,0.168,0.105,0.248
			c0.123,0.332,0.246,0.651,0.309,0.968c0.117,0.583,0.205,1.18,0.287,1.769c0.063,0.454,0.13,0.91,0.215,1.37
			c0.084,0.528,0.203,1.044,0.322,1.59c0.031,0.145,0.065,0.287,0.094,0.438c-0.063,0.017-0.111,0.032-0.149,0.034
			c-0.289,0.01-0.577,0.018-0.869,0.021c-0.429,0.007-0.869,0.012-1.311,0.04c-1.487,0.104-2.997,0.233-4.458,0.357l-0.606,0.047
			c-0.56,0.042-1.098,0.103-1.607,0.167c-0.286,0.035-0.528,0.176-0.688,0.383c-0.155,0.203-0.225,0.455-0.186,0.722
			c0.054,0.362,0.478,0.728,0.812,0.795c0.379,0.081,0.776,0.053,1.155,0.027l0.14-0.008c0.243-0.018,0.477-0.039,0.721-0.073
			c0.294-0.033,0.576-0.064,0.856-0.076c0.813-0.023,1.623-0.037,2.435-0.056c1.291-0.029,2.621-0.059,3.938-0.115
			c0.373-0.011,0.562,0.069,0.725,0.4c0.097,0.205,0.197,0.404,0.301,0.606c0.199,0.392,0.393,0.763,0.537,1.15
			c0.685,1.772,1.555,3.483,2.661,5.24c0.419,0.656,0.798,1.338,1.189,2.052c0.142,0.249,0.279,0.503,0.416,0.755
			c-0.086,0.1-0.164,0.184-0.235,0.225c-0.374,0.209-0.747,0.425-1.115,0.644c-1.101,0.628-2.231,1.274-3.381,1.826
			c-0.664,0.315-1.41,0.526-2.132,0.733c-0.314,0.094-0.632,0.183-0.948,0.278c-0.267,0.089-0.896,0.289-0.906,1.005
			c0,0.565,0.38,0.982,1.001,1.077c0.587,0.089,1.097,0.12,1.563,0.089c0.572-0.043,1.149-0.095,1.715-0.15
			c0.723-0.063,1.471-0.137,2.208-0.17c0.637-0.028,1.188-0.198,1.737-0.543c0.772-0.476,1.568-0.938,2.337-1.392
			c0.241-0.142,0.485-0.284,0.727-0.425l0.695,0.639c0.635,0.582,1.248,1.146,1.864,1.711c0.498,0.453,1.006,0.898,1.506,1.342
			c1.115,0.996,2.271,2.02,3.331,3.092c0.771,0.777,1.608,0.939,2.334,0.994c0.204,0.016,0.412,0.021,0.621,0.027
			c0.373,0.01,0.758-0.082,1.06-0.244c0.894-0.496,1.657-0.957,2.321-1.404c1.341-0.898,2.276-2.186,3.184-3.436l0.239-0.328
			l-0.225-0.203C157.892,178.521,157.282,178.213,156.61,178.161z M133.003,145.209c0.06-0.004,0.117-0.013,0.171-0.021
			c0.335-0.055,0.649-0.105,0.962-0.124c0.656-0.04,1.32-0.066,1.972-0.094c1.296-0.046,2.641-0.097,3.952-0.266
			c1.274-0.172,2.656-0.187,4.346-0.057c0.146,0.016,0.293,0.026,0.441,0.04l0.058,0.005c0.337,0.027,0.67,0.02,0.996,0.017
			c0.188-0.005,0.378-0.005,0.569,0c0.377,0.003,0.75,0.02,1.188,0.031l0.252,0.009l-0.494,1.945
			c-0.059,0.032-0.131,0.067-0.187,0.067c-2.145,0.246-4.305,0.48-6.423,0.702c-1.165,0.122-2.298,0.118-3.471-0.02
			c-0.996-0.11-2.016-0.078-2.997-0.057c-0.422,0.015-0.838,0.022-1.257,0.024c-0.126,0-0.247,0.005-0.378,0.016
			c-0.108-0.32-0.023-0.632,0.105-1.079C132.913,146.006,133.029,145.629,133.003,145.209z M148.916,140.734
			c-0.089,0.39-0.19,0.782-0.304,1.197c-0.033,0.144-0.072,0.296-0.109,0.445c-0.055,0.026-0.137,0.063-0.166,0.06
			c-0.135-0.025-0.275-0.042-0.428-0.051c-0.52-0.047-1.023,0.009-1.515,0.063c-0.479,0.052-0.938,0.101-1.391,0.067l-0.036-0.006
			c-0.923-0.086-1.851-0.143-2.773-0.198l-0.615-0.045c-0.209-0.01-0.412,0.007-0.621,0.032c-0.39,0.04-0.772,0.092-1.16,0.145
			c-0.807,0.105-1.644,0.211-2.458,0.25c-0.929,0.039-1.864,0.017-2.844-0.014c-0.331-0.009-0.66-0.017-1.001-0.025
			c-0.01-0.781,0.215-1.479,0.451-2.211c0.088-0.286,0.181-0.579,0.264-0.886c0.223,0,0.438-0.006,0.648-0.006
			c0.737,0,1.422-0.002,2.133-0.026c0.363-0.013,0.725-0.059,1.077-0.104c0.141-0.022,0.285-0.043,0.428-0.062
			c0.148-0.017,0.307-0.038,0.458-0.056c0.313-0.055,0.609-0.095,0.896-0.095c0.099-0.002,0.194,0,0.286,0
			c0.608,0.007,1.233,0.017,1.876-0.31c0.17-0.083,0.426-0.079,0.699-0.069c0.158,0,0.317,0.006,0.479-0.01
			c0.482-0.038,0.967-0.116,1.43-0.189c0.83-0.132,1.613-0.26,2.42-0.191h0.017c0.146,0.008,0.284,0.019,0.431,0.026
			c0.282,0.013,0.57,0.027,0.845,0.071c0.551,0.09,0.787,0.356,0.787,0.878c-0.005,0.393-0.099,0.807-0.179,1.21L148.916,140.734z
			 M131.976,151.863c0.071-0.617,0.135-1.195,0.225-1.775c0.019-0.138,0.043-0.229,0.339-0.255c1.676-0.184,3.248-0.202,4.802-0.084
			l0.271,0.024c2.007,0.159,3.54,0.086,4.99-0.239c0.769-0.171,1.574-0.25,2.355-0.335c0.383-0.033,0.767-0.073,1.145-0.119
			c0.322-0.043,0.564,0.021,0.787,0.221l-0.456,2.326c-0.199,0.017-0.392,0.032-0.587,0.049c-0.578,0.058-1.125,0.104-1.67,0.134
			c-2.176,0.12-4.305,0.229-6.457,0.305c-0.5,0.015-1.012,0-1.506-0.014c-0.428-0.015-0.875-0.025-1.312-0.024
			c-0.533,0.016-1.034,0.08-1.477,0.204c-0.334,0.093-0.662,0.081-0.938,0.059c-0.119-0.006-0.239-0.021-0.368-0.033
			c-0.063-0.007-0.127-0.018-0.192-0.021C131.946,152.139,131.96,151.999,131.976,151.863z"/>
		<path d="M120.669,144.109c-0.861-0.211-1.557-0.414-2.176-0.649c-0.611-0.235-1.06-0.149-1.468,0.237
			c-0.384,0.37-0.854,0.524-1.582,0.535c-1.02,0.003-2.041,0.051-3.034,0.128c-0.345,0.03-0.689,0.094-1.021,0.151
			c-0.353,0.065-0.679,0.126-1.014,0.147c-0.879,0.059-1.776,0.086-2.646,0.107c-0.336,0.015-0.669,0.024-1.006,0.03
			c-0.241,0.015-0.491,0.016-0.736,0.023h-0.083c-0.015-0.072-0.022-0.139-0.022-0.188c0-1.067-0.472-1.712-1.453-1.985
			c-0.472-0.132-0.914-0.336-1.389-0.559c-0.181-0.083-0.354-0.167-0.536-0.25c-0.854-0.371-1.571-0.276-2.35,0.301l-0.192,0.148
			l0.07,0.228c0.046,0.139,0.078,0.287,0.111,0.434c0.088,0.384,0.176,0.774,0.442,1.063c0.287,0.314,0.403,0.607,0.408,1.036
			c0.011,0.517-0.005,1.078-0.033,1.758c-0.049,0.965-0.166,1.947-0.282,2.896c-0.151,1.259-0.307,2.562-0.307,3.864
			c0.005,1.172-0.102,2.374-0.208,3.526c-0.046,0.572-0.102,1.144-0.142,1.713c-0.023,0.357-0.047,0.722-0.004,1.094
			c0.078,0.676,0.465,1.092,1.059,1.135c0.17,0.017,0.354-0.005,0.553-0.049c0.082-0.021,0.166-0.048,0.248-0.076
			c0.105-0.038,0.213-0.073,0.274-0.068c1.608,0.097,3.08-0.41,4.425-0.979c1.006-0.417,2.033-0.58,3.185-0.731
			c0.537-0.07,1.088-0.12,1.616-0.161c0.326-0.03,0.651-0.054,0.977-0.084c0.188-0.021,0.369-0.047,0.556-0.079
			c0.306-0.052,0.592-0.095,0.873-0.087c0.061,0,0.116,0.004,0.165,0.008c0.187,0.016,0.228,0.038,0.228,0.038
			c0.026,0.032,0.04,0.139,0.021,0.474c-0.07,1.312,0.09,1.563,1.313,2.073c0.063,0.028,0.131,0.052,0.191,0.074
			c1.206,0.422,2.983-0.26,3.172-1.767c0.035-0.242,0.073-0.481,0.123-0.734c0.053-0.268,0.106-0.545,0.136-0.827
			c0.164-1.435,0.583-2.853,0.979-4.222c0.16-0.549,0.32-1.088,0.462-1.637c0.166-0.621,0.402-1.202,0.655-1.824
			c0.326-0.808,0.67-1.644,0.82-2.551c0.02-0.118,0.045-0.237,0.067-0.357c0.082-0.431,0.16-0.878,0.16-1.349
			C122.265,144.851,121.905,144.401,120.669,144.109z M104.956,154.333c0.029-0.427,0.048-0.834,0.093-1.241
			c0.165-1.55,0.397-3.38,0.868-5.215c0.028-0.123,0.049-0.258,0.068-0.392c0.02-0.142,0.059-0.413,0.116-0.462
			c0.074-0.063,0.365-0.052,0.552-0.046c0.113,0,0.226,0.003,0.327,0c0.422-0.006,0.84-0.022,1.268-0.035
			c0.642-0.014,1.281-0.03,1.927-0.059c0.321-0.02,0.646-0.059,0.956-0.103c0.215-0.027,0.428-0.059,0.642-0.077
			c0.352-0.032,0.695-0.063,1.044-0.096c1.124-0.108,2.282-0.212,3.431-0.284c0.12-0.005,0.226-0.005,0.313,0
			c0.136,0.009,0.225,0.042,0.257,0.08c0.034,0.043,0.083,0.179,0.021,0.605c-0.142,0.967-0.345,1.942-0.543,2.885l-0.146,0.705
			c-0.241,1.188-0.499,2.371-0.761,3.553l-0.083,0.397c-0.041,0.158-0.084,0.312-0.127,0.467c-0.025,0.079-0.049,0.158-0.068,0.237
			c-0.196,0.709-0.784,1.125-1.563,1.108c-0.743-0.013-1.451,0.116-2.144,0.24c-0.61,0.109-1.182,0.215-1.771,0.218
			c-0.493,0.014-0.97,0.109-1.428,0.198c-0.572,0.11-1.112,0.211-1.669,0.163l-0.035-0.004c-0.408-0.029-0.806,0.092-1.184,0.205
			c-0.19,0.055-0.37,0.108-0.544,0.144c-0.087,0.019-0.185,0.024-0.295,0.029C104.834,156.451,104.898,155.379,104.956,154.333z"/>
		<path d="M162.024,156.315c-0.18-0.7-0.44-1.378-0.694-2.034c-0.081-0.217-0.166-0.43-0.242-0.649
			c-0.262-0.7-0.685-1.126-1.297-1.293c-0.203-0.062-0.402-0.137-0.615-0.217c-0.389-0.148-0.791-0.294-1.219-0.334l-0.128-0.012
			c-1.394-0.105-2.738,0.033-3.105,1.822l-0.045,0.215l0.182,0.127c0.1,0.077,0.218,0.147,0.329,0.215
			c0.199,0.12,0.389,0.239,0.496,0.384c0.742,0.954,1.271,2.034,1.571,3.201c0.235,0.894,0.413,1.145,1.354,1.296l0.049,0.008
			c0.136,0.027,0.274,0.041,0.354,0.094c0.247,0.152,0.528,0.242,0.83,0.264c0.407,0.034,0.798-0.054,1.155-0.154
			c0.427-0.117,0.977-0.567,1.078-1.033C162.199,157.631,162.187,156.94,162.024,156.315z"/>
	</g>
</g>
<path fill="none" d="M115.038,200.381"/>
<g>
	<path fill="#FBAE24" d="M52.015,119.821l13.139,3.779l6.235,7.557v8.312l-5.391,7.555l-7.811,1.324H47.57l-11.132,5.202
		l-6.046,5.755l-3.967,14.223l2.646,11.912l5.1,6.927l6.537,3.969l10.001-0.352l6.717-4.251l5.006-8.099l3.566-2.387l6.334-0.026
		l2.523,7.472l-1.956,11.042l-6.901,6.991l-7.811,5.667l-14.267,3.211l-11.074-1.511l-9.443-6.047l-7.559-9.256l-4.154-8.49
		l-2.835-7.758l1.135-16.437l2.454-10.77l3.592-10.013l6.235-8.689l6.8-6.8l7.557-5.103
		C36.627,124.733,48.725,118.876,52.015,119.821z"/>
	<path fill="#BDBD39" d="M40.708,186.167c0,0,0.141,6.418,2.268,8.402c2.124,1.982,7.734,1.416,7.734,1.416l6.717-4.251l4.392-6.293
		l2.692-4.19h3.827h3.4l1.135,2.385l1.984,4.238v5.278l-2.268,5.524l-2.976,5.811l-0.143,3.684l2.691,6.093l5.951,4.96h9.354
		l3.825-4.251v-4.394l-3.116-5.242l-3.119-3.541l-1.7-5.811l-0.424-12.35l-2.125-10.182l-6.235-8.5l-7.794-1.275h-6.376
		l-7.513,3.259l-6.514,5.952l-4.535,6.517L40.708,186.167z"/>
	<path d="M40.117,194.375c-0.193-0.982-0.38-1.722-0.482-2.474c-0.12-0.835-0.185-1.679-0.237-2.522
		c-0.051-0.852-0.081-1.709-0.072-2.562c0.021-1.718,0.346-3.377,0.916-5.008c0.457-1.308,0.625-2.72,1.13-4.005
		c0.401-1.03,1.041-1.995,1.695-2.898c1.518-2.105,3.276-4.008,5.163-5.791c0.413-0.392,0.851-0.763,1.319-1.086
		c1.257-0.862,2.032-2.374,3.684-2.731c0.395-0.085,0.727-0.436,1.107-0.621c1.386-0.683,2.782-1.347,4.175-2.016
		c0.072-0.032,0.143-0.072,0.212-0.088c0.943-0.196,1.882-0.39,2.821-0.581c2.18-0.441,4.332-0.247,6.479,0.235
		c0.521,0.12,1.07,0.125,1.605,0.214c0.567,0.097,1.148,0.17,1.693,0.353c1.248,0.413,2.5,0.819,3.7,1.345
		c2.161,0.953,4.389,1.852,5.478,4.219c0.54,1.158,1.031,2.349,1.682,3.442c0.586,0.988,0.971,2.007,1.103,3.14
		c0.028,0.222,0.134,0.461,0.272,0.64c0.795,1.008,0.839,2.188,0.888,3.397c0.072,1.744,0.258,3.485,0.328,5.229
		c0.067,1.557,0.053,3.112,0.051,4.668c-0.004,1.086-0.162,2.18-0.053,3.25c0.123,1.301,0.441,2.576,0.681,3.863
		c0.164,0.864,0.154,1.741,0.447,2.605c0.466,1.383,0.718,2.764,1.763,3.951c0.862,0.984,1.931,1.791,2.662,2.894
		c0.127,0.19,0.397,0.334,0.434,0.532c0.235,1.223,1.172,1.988,1.854,2.908c0.302,0.406,0.434,0.793,0.417,1.281
		c-0.051,1.469-0.067,2.942-0.115,4.414c-0.004,0.176-0.115,0.354-0.191,0.523c-0.106,0.246-0.337,0.488-0.332,0.73
		c0.032,1.766-1.354,2.44-2.5,3.258c-1.76,1.256-3.88,1.713-5.864,2.471c-0.071,0.027-0.15,0.048-0.226,0.048
		c-2.856-0.058-5.788,0.233-8.17-1.868c-0.756-0.669-1.5-1.35-2.253-2.023c-0.111-0.107-0.208-0.244-0.339-0.317
		c-1.813-1.001-2.537-2.83-3.441-4.522c-0.851-1.595-1.656-3.217-2.533-4.93c-0.337,0.205-0.554,0.33-0.756,0.471
		c-0.063,0.041-0.072,0.156-0.134,0.188c-1.177,0.615-1.961,1.719-3.033,2.464c-0.96,0.666-1.947,1.228-3.063,1.628
		c-0.856,0.305-1.603,0.9-2.408,1.354c-0.938,0.531-1.838,1.156-2.941,1.338c-0.226,0.037-0.491,0.105-0.646,0.252
		c-0.828,0.783-1.917,0.691-2.909,0.925c-0.221,0.056-0.447,0.125-0.673,0.162c-0.722,0.112-1.444,0.249-2.17,0.319
		c-2.162,0.211-4.32,0.394-6.482,0.586c-0.191,0.02-0.39,0.086-0.577,0.061c-1.765-0.242-3.584,0.027-5.317-0.535
		c-1.026-0.334-2.046-0.715-3.033-1.148c-0.948-0.422-2.014-0.651-2.706-1.541c-0.079-0.104-0.274-0.121-0.424-0.162
		c-2.621-0.77-4.893-2.18-6.913-3.969c-0.916-0.82-1.654-1.854-2.39-2.854c-0.784-1.055-1.421-2.217-2.205-3.271
		c-0.78-1.055-1.661-2.031-2.507-3.035c-0.146-0.178-0.3-0.379-0.499-0.475c-0.957-0.49-1.381-1.449-1.931-2.254
		c-0.558-0.816-0.855-1.812-1.266-2.73c-0.129-0.283-0.191-0.631-0.399-0.836c-0.616-0.604-0.688-1.383-0.665-2.137
		c0.014-0.494-0.12-0.801-0.457-1.115c-0.279-0.26-0.559-0.549-0.734-0.881c-0.948-1.752-1.665-3.576-1.833-5.601
		c-0.106-1.274-0.434-2.53-0.602-3.801c-0.139-1.073-0.245-2.162-0.265-3.243c-0.032-2.234-0.104-4.479,0.039-6.704
		c0.097-1.498,0.549-2.969,0.8-4.459c0.21-1.26,0.427-2.526,0.505-3.792c0.071-1.139,0.244-2.216,0.65-3.293
		c0.332-0.854,0.447-1.79,0.683-2.683c0.385-1.458,0.616-2.948,1.333-4.313c0.593-1.124,1.04-2.321,1.571-3.476
		c0.761-1.652,1.52-3.303,2.316-4.932c0.491-1.006,1.049-1.972,1.584-2.953c0.856-1.578,1.993-2.92,3.313-4.131
		c0.332-0.307,0.51-0.775,0.814-1.121c1.024-1.16,2.055-2.316,3.119-3.439c0.372-0.39,0.886-0.648,1.262-1.034
		c0.757-0.766,1.506-1.545,2.178-2.383c0.814-1.017,1.829-1.741,2.927-2.404c0.757-0.456,1.396-1.103,2.148-1.557
		c1.578-0.955,3.042-2.113,4.848-2.648c0.245-0.071,0.438-0.302,0.678-0.415c0.443-0.21,0.897-0.391,1.354-0.571
		c0.254-0.1,0.54-0.126,0.766-0.261c2.161-1.269,4.477-2.048,6.971-2.336c0.65-0.077,1.278-0.341,1.931-0.434
		c2.187-0.319,4.364-0.321,6.53,0.226c1.089,0.274,2.201,0.448,3.28,0.746c1.005,0.277,2.011,0.586,2.964,1.008
		c0.886,0.389,1.783,0.654,2.713,0.914c1.241,0.347,2.415,1.038,3.508,1.746c2.09,1.355,3.497,3.384,4.913,5.375
		c0.284,0.399,0.431,0.906,0.602,1.379c0.268,0.724,0.471,1.479,0.764,2.196c0.318,0.775,0.459,1.488,0.198,2.355
		c-0.24,0.793-0.178,1.679-0.198,2.528c-0.063,2.696-1.262,4.978-2.614,7.201c-0.134,0.224-0.353,0.468-0.583,0.547
		c-1.275,0.427-2.364,1.146-3.356,2.032c-0.851,0.766-1.954,1.068-2.927,1.601c-1.564,0.858-3.192,0.955-4.929,0.858
		c-1.854-0.106-3.723,0.009-5.591,0.016c-0.457,0.002-0.914-0.048-1.368-0.044c-2.802,0.028-5.531,0.621-8.267,1.137
		c-0.371,0.067-0.712,0.291-1.082,0.422c-0.796,0.286-1.633,0.491-2.399,0.854c-0.904,0.429-1.785,0.934-2.609,1.497
		c-1.495,1.021-2.948,2.081-4.232,3.402c-1.089,1.119-1.841,2.408-2.706,3.665c-0.955,1.398-1.575,2.909-2.249,4.424
		c-0.092,0.212-0.198,0.429-0.23,0.65c-0.332,2.521-0.844,5.003-0.992,7.568c-0.18,3.199,0.533,6.132,1.603,9.058
		c0.094,0.248,0.196,0.508,0.226,0.771c0.076,0.593,0.164,1.144,0.756,1.489c0.178,0.103,0.298,0.359,0.369,0.57
		c0.452,1.344,1.296,2.463,2.081,3.609c0.63,0.915,1.294,1.807,2.007,2.671C36.399,192.825,38.281,193.314,40.117,194.375z
		 M10.311,179.258c0.058,0.863,0.111,1.947,0.198,3.025c0.081,0.924,0.164,1.85,0.309,2.768c0.125,0.805,0.316,1.604,0.515,2.392
		c0.138,0.554,0.367,1.087,0.505,1.642c0.115,0.459,0.168,0.967,0.678,1.14c0.606,0.205,0.8,0.68,0.997,1.204
		c0.295,0.812,0.597,1.631,0.941,2.429c0.182,0.417,0.44,0.812,0.701,1.187c0.738,1.043,1.479,2.082,2.249,3.1
		c0.558,0.738,1.174,1.434,1.749,2.156c0.265,0.334,0.482,0.707,0.75,1.039c0.743,0.934,1.576,1.809,2.235,2.797
		c0.863,1.297,1.734,2.572,2.779,3.727c0.337,0.371,0.71,0.747,1.149,0.977c1.398,0.732,2.616,1.74,4.147,2.312
		c1.794,0.669,3.409,1.799,5.146,2.646c0.789,0.383,1.661,0.72,2.519,0.798c1.617,0.151,3.25,0.146,4.876,0.114
		c1.124-0.019,2.24-0.231,3.363-0.277c2.387-0.105,4.708-0.559,6.975-1.275c0.842-0.266,1.638-0.703,2.422-1.119
		c0.886-0.471,1.677-1.179,2.611-1.475c1.843-0.59,3.259-1.755,4.664-2.977c0.814-0.707,1.55-1.545,2.452-2.106
		c2.348-1.448,4.498-3.024,5.508-5.744c0.646-1.739,1.439-3.432,2.028-5.188c1.082-3.236,0.886-6.465-0.279-9.66
		c-0.415-1.143-1.22-1.969-2.258-2.325c-1.393-0.476-2.899-0.403-4.364-0.13c-0.648,0.123-1.094,0.501-1.521,1.002
		c-0.833,0.996-1.55,2.039-1.829,3.33c-1.598,1.771-2.417,4.127-4.315,5.675c-0.593,0.483-1.05,1.14-1.643,1.628
		c-0.713,0.586-1.453,1.186-2.272,1.588c-0.824,0.405-1.363,1.148-2.249,1.512c-0.833,0.338-1.642,0.805-2.519,0.81
		c-1.045,0.009-2.069,0.146-3.1,0.203c-1.647,0.099-3.326,0.133-4.959-0.274c-1.084-0.271-2.205-0.43-3.259-0.779
		c-1.232-0.414-2.436-0.938-3.414-1.854c-0.194-0.182-0.447-0.307-0.673-0.456c-1.061-0.706-2.104-1.431-2.798-2.54
		c-0.203-0.324-0.351-0.71-0.616-0.974c-1.492-1.481-2.374-3.343-3.262-5.199c-0.099-0.21-0.196-0.419-0.284-0.632
		c-0.625-1.501-1.391-2.963-1.833-4.514c-0.771-2.733-1.107-5.551-1.036-8.401c0.016-0.577,0.136-1.146,0.177-1.724
		c0.127-2.007,0.328-3.992,1.267-5.823c0.136-0.271,0.189-0.59,0.27-0.893c0.616-2.341,1.633-4.491,2.952-6.516
		c1.151-1.762,2.44-3.373,4.247-4.523c1.045-0.669,1.988-1.532,3.086-2.083c2.918-1.453,5.928-2.706,9.139-3.377
		c0.717-0.152,1.453-0.191,2.182-0.274c0.918-0.104,1.824-0.36,2.763-0.111c0.125,0.032,0.288-0.104,0.438-0.129
		c0.337-0.063,0.674-0.146,1.015-0.15c1.744-0.023,3.492-0.044,5.238-0.028c0.81,0.009,1.624,0.166,2.429,0.138
		c1.042-0.039,2.189,0.053,3.095-0.348c2.051-0.906,3.986-2.101,5.663-3.61c0.489-0.436,0.821-1.132,1.02-1.771
		c0.332-1.068,0.482-2.191,0.738-3.287c0.346-1.504,0.235-3.019-0.122-4.479c-0.337-1.368-0.93-2.627-1.709-3.866
		c-1.241-1.97-2.787-3.494-4.787-4.614c-0.404-0.226-0.784-0.508-1.208-0.683c-1.098-0.446-2.233-0.807-3.317-1.285
		c-1.687-0.743-3.433-1.226-5.262-1.385c-1.624-0.136-3.245-0.092-4.883,0.038c-2.528,0.202-4.791,1.189-7.137,1.942
		c-0.537,0.173-1.005,0.556-1.529,0.796c-0.835,0.39-1.744,0.66-2.533,1.13c-1.292,0.773-2.535,1.628-3.762,2.515
		c-2.076,1.506-4.159,3.003-5.947,4.867c-0.909,0.946-1.896,1.825-2.787,2.789c-1.079,1.167-1.988,2.514-3.169,3.559
		c-1.407,1.241-2.233,2.874-3.255,4.348c-0.911,1.317-1.435,2.901-2.099,4.38c-0.189,0.415-0.154,0.971-0.424,1.301
		c-0.833,1.031-0.523,2.519-1.474,3.483c-0.037,0.037,0.021,0.152,0.009,0.226c-0.067,0.374-0.111,0.754-0.214,1.119
		c-0.448,1.562-1.008,3.103-1.34,4.687c-0.452,2.166-0.731,4.367-1.082,6.551c-0.279,1.721-0.598,3.441-0.824,5.174
		c-0.141,1.109-0.122,2.242-0.233,3.359C10.758,175.676,10.537,177.353,10.311,179.258z M82.435,218.631c0-0.032,0-0.063,0-0.092
		c0.621,0,1.243,0.021,1.864-0.006c1.412-0.058,2.556-0.812,3.711-1.502c0.385-0.23,0.881-0.556,0.987-0.93
		c0.401-1.464,0.66-2.971,0.235-4.48c-0.572-2.054-1.834-3.756-2.955-5.522c-0.136-0.218-0.39-0.392-0.627-0.5
		c-0.648-0.293-1.024-0.826-1.352-1.407c-0.487-0.861-0.992-1.719-1.386-2.623c-0.39-0.883-0.761-1.806-0.925-2.749
		c-0.337-1.942-0.563-3.903-0.775-5.868c-0.106-0.996-0.101-2.007-0.097-3.013c0-0.774,0.15-1.55,0.125-2.325
		c-0.076-2.048-0.152-4.099-0.341-6.138c-0.147-1.539-0.341-3.095-0.74-4.582c-0.406-1.521-0.96-3.017-1.776-4.401
		c-0.247-0.424-0.219-1.047-0.526-1.398c-1.089-1.249-1.917-2.769-3.437-3.594c-0.676-0.369-1.421-0.611-2.11-0.959
		c-1.107-0.556-2.344-0.704-3.5-1.124c-1.252-0.452-2.655-0.496-3.997-0.689c-1.059-0.155-2.138-0.466-3.153,0.217
		c-0.141,0.097-0.376,0.069-0.57,0.083c-0.621,0.042-1.208,0.138-1.771,0.484c-0.417,0.258-0.948,0.323-1.418,0.5
		c-0.579,0.221-1.267,0.344-1.686,0.738c-0.572,0.54-1.228,0.775-1.913,1.026c-0.168,0.062-0.417,0.113-0.482,0.245
		c-0.461,0.867-1.361,1.305-2.09,1.744c-2.17,1.308-4.004,2.935-5.501,4.933c-1.049,1.393-2.018,2.823-2.491,4.576
		c-0.514,1.902-0.899,3.832-1.356,5.744c-0.491,2.059-0.247,4.1,0.152,6.137c0.102,0.524,1.652,2.971,2.076,3.264
		c0.155,0.102,0.351,0.154,0.531,0.207c0.812,0.242,1.674,0.252,2.475,0.42c0.865,0.183,1.554,0.021,2.353-0.164
		c1.186-0.274,2.125-0.918,3.077-1.59c1.257-0.885,2.542-1.75,3.506-2.971c0.766-0.967,1.421-2.023,2.191-2.988
		c0.727-0.912,1.453-1.81,1.869-2.924c0.191-0.502,0.399-1.039,0.745-1.435c1.142-1.312,2.215-2.782,3.988-3.257
		c1.146-0.307,2.36-0.428,3.548-0.471c0.796-0.031,1.603,0.203,2.399,0.346c0.376,0.066,0.789,0.119,1.093,0.318
		c1.645,1.062,2.976,2.375,3.317,4.424c0.048,0.266,0.164,0.52,0.212,0.787c0.212,1.092,0.549,2.185,0.586,3.283
		c0.048,1.549-0.111,3.105-0.226,4.655c-0.04,0.496-0.196,0.991-0.365,1.465c-0.597,1.665-1.248,3.313-1.836,4.981
		c-0.572,1.617-1.252,3.162-2.466,4.416c-0.157,0.158-0.302,0.385-0.332,0.595c-0.222,1.636-0.111,3.252,0.443,4.81
		c0.309,0.873,0.609,1.805,1.16,2.521c1.08,1.412,2.313,2.711,3.527,4.02c0.438,0.475,1.068,0.781,1.492,1.268
		c1.034,1.185,2.281,1.701,3.836,1.503C81.962,218.604,82.199,218.631,82.435,218.631z"/>
	<g>
		<path d="M60.208,143.355c-0.272-0.028-0.549-0.025-0.812-0.085c-0.974-0.224-1.045-0.385-1.16-1.421
			c-0.088-0.793-0.141-1.516,0.549-2.108c0.178-0.147,0.178-0.498,0.249-0.763c0.251-0.964,0.911-1.287,2.071-1.013
			c0.93,0.221,1.338,0.849,1.197,1.762c-0.051,0.325-0.051,0.685,0.035,1.001C62.741,142.25,61.809,143.406,60.208,143.355z"/>
		<path d="M55.775,139.12c-0.125,0.87-0.212,1.709-0.362,2.535c-0.11,0.609-1.324,1.192-2.131,1.073
			c-0.814-0.123-1.238-0.588-1.266-1.386c-0.039-1.229,0.533-2.24,1.204-3.192c0.143-0.201,0.519-0.275,0.807-0.323
			c0.212-0.032,0.452,0.079,0.681,0.108C55.736,138.078,55.798,138.147,55.775,139.12z"/>
	</g>
	<g>
		<path d="M55.062,186.506c-0.018,0.65,0.141,1.309-0.544,1.781c-0.694,0.479-2.431,0.568-3.095,0.065
			c-0.583-0.44-0.854-1.063-0.641-1.743c0.23-0.727,0.574-1.436,0.959-2.1c0.399-0.696,1.103-0.963,1.873-0.852
			c0.793,0.117,1.139,0.762,1.303,1.465C55.023,185.573,55.018,186.047,55.062,186.506z"/>
		<path d="M46.37,185.441c1.075,0.966,1.142,2.293,1.2,3.604c0.009,0.238-0.164,0.527-0.337,0.713
			c-0.526,0.58-2.5,0.752-3.072,0.242c-0.183-0.16-0.231-0.529-0.24-0.812c-0.009-0.3,0.148-0.602,0.152-0.906
			C44.108,186.333,44.435,185.907,46.37,185.441z"/>
	</g>
</g>
</svg>
